# xmcd
#
# Track frame offsets: 
#        150
#        25082
#        51747
#        75027
#        123532
#        144592
#        175125
#        195245
#        220375
#        251895
#
# Disc length: 3665 seconds
#
# Revision: 5
# Processed by: cddbd v1.5.2PL0 Copyright (c) Steve Scherf et al.
# Submitted via: ExactAudioCopy v0.99pb5
#
DISCID=8a0e4f0a
DTITLE=Jimmy Thackery and The Drivers - Wild Night Out
DYEAR=1995
DGENRE=Blues
TTITLE0=Wild Night Out
TTITLE1=You Upset Me Baby
TTITLE2=The Stumble
TTITLE3=If You Go
TTITLE4=Empty Arms Motel
TTITLE5=Edward's Blues
TTITLE6=Flyin' Low
TTITLE7=Trouble Man
TTITLE8=Red House
TTITLE9=I Don't Live Today
EXTD=
EXTT0=
EXTT1=
EXTT2=
EXTT3=
EXTT4=
EXTT5=
EXTT6=
EXTT7=
EXTT8=
EXTT9=
PLAYORDER=
